# AST/ASF file generated using VICON BodyLanguage
# -----------------------------------------------
:version 1.10
:name VICON
:units
  mass 1.0
  length 0.45
  angle deg
:documentation
   .ast/.asf automatically generated from VICON data using
   VICON BodyBuilder and BodyLanguage model FoxedUp or BRILLIANT.MOD
:root
   order TX TY TZ RX RY RZ
   axis XYZ
   position 0 0 0  
   orientation 0 0 0 
:bonedata
  begin
     id 1 
     name lhipjoint
     direction 0.558404 -0.748506 0.357664 
     length 2.4234 
     axis 0 0 0  XYZ
  end
  begin
     id 2 
     name lfemur
     direction 0.34202 -0.939693 0  
     length 7.14567  
     axis 0 0 20  XYZ
    dof rx ry rz
    limits (-160.0 20.0)
           (-70.0 70.0)
           (-60.0 70.0)
  end
  begin
     id 3 
     name ltibia
     direction 0.34202 -0.939693 0   
     length 8.13956   
     axis 0 0 20   XYZ
    dof rx
    limits (-10.0 170.0)
  end
  begin
     id 4 
     name lfoot
     direction 0.0791314 -0.217412 0.972867   
     length 2.00134   
     axis -90 7.62852e-016 20   XYZ
    dof rx rz
    limits (-45.0 90.0)
           (-70.0 20.0)
  end
  begin
     id 5 
     name ltoes
     direction 1.53547e-011 -4.21922e-011 1   
     length 1.00735   
     axis -90 7.62852e-016 20   XYZ
    dof rx
    limits (-90.0 20.0)
  end
  begin
     id 6 
     name rhipjoint
     direction -0.496392 -0.78327 0.374276   
     length 2.31584  
     axis 0 0 0  XYZ 
  end
  begin
     id 7 
     name rfemur
     direction -0.34202 -0.939693 0   
     length 7.47417   
     axis 0 0 -20   XYZ
    dof rx ry rz
    limits (-160.0 20.0)
           (-70.0 70.0)
           (-70.0 60.0)
  end
  begin
     id 8 
     name rtibia
     direction -0.34202 -0.939693 0   
     length 7.69071   
     axis 0 0 -20   XYZ
    dof rx
    limits (-10.0 170.0)
 end
 begin
     id 9 
     name rfoot
     direction -0.103069 -0.28318 0.953512   
     length 2.16135  
     axis -90 -7.62852e-016 -20   XYZ
    dof rx rz
    limits (-45.0 90.0)
           (-20.0 70.0)
  end
  begin
     id 10 
     name rtoes
     direction -1.53581e-011 -4.21904e-011 1   
     length 1.07867   
     axis -90 -7.62852e-016 -20   XYZ
    dof rx
    limits (-90.0 20.0)
  end
  begin
     id 11 
     name lowerback
     direction -0.0258961 0.994776 -0.0987407   
     length 2.19412   
     axis 0 0 0   XYZ
    dof rx ry rz
    limits (-20.0 45.0)
           (-30.0 30.0)
           (-30.0 30.0)
  end
  begin
     id 12 
     name upperback
     direction 0.0402454 0.999185 0.00320666   
     length 2.18445   
     axis 0 0 0   XYZ
    dof rx ry rz
    limits (-20.0 45.0)
           (-30.0 30.0)
           (-30.0 30.0)
  end
  begin
     id 13 
     name thorax
     direction 0.0519376 0.997415 0.0496558   
     length 2.21487   
     axis 0 0 0   XYZ
    dof rx ry rz
    limits (-20.0 45.0)
           (-30.0 30.0)
           (-30.0 30.0)
  end
  begin
     id 14 
     name lowerneck
     direction -0.0921276 0.983211 0.157506   
     length 1.61201   
     axis 0 0 0   XYZ
    dof rx ry rz
    limits (-20.0 45.0)
           (-30.0 30.0)
           (-30.0 30.0)
  end
  begin
     id 15 
     name upperneck
     direction 0.0820814 0.98162 -0.172292   
     length 1.65275   
     axis 0 0 0   XYZ
    dof rx ry rz
    limits (-20.0 45.0)
           (-30.0 30.0)
           (-30.0 30.0)
  end
  begin
     id 16
     name head
     direction 0.0336554 0.996413 -0.0776455  
     length 1.66415  
     axis 0 0 0   XYZ
    dof rx ry rz
    limits (-20.0 45.0)
           (-30.0 30.0)
           (-30.0 30.0)
  end
  begin
     id 17 
     name lclavicle
     direction 0.94696 0.284418 -0.149576  
     length 3.41447  
     axis 0 0 0   XYZ
    dof ry rz
    limits (-20.0 10.0)
           (0.0 20.0)
  end
  begin
     id 18 
     name lhumerus
     direction 1 -0.000130264 -9.81312e-005   
     length 5.19964   
     axis 180 -30 -90   XYZ
    dof rx ry rz
    limits (-60.0 90.0)
           (-90.0 90.0)
           (-90.0 90.0)
  end
  begin
     id 19
     name lradius
     direction 1 -4.48961e-011 1.43854e-026   
     length 3.32189   
     axis 180 -30 -90   XYZ
    dof rx
    limits (-10.0 170.0)
  end
  begin
     id 20
     name lwrist
     direction 1 -4.48958e-011 3.1502e-026   
     length 1.66095   
     axis -1.97692e-014 90 90   XYZ
    dof ry
    limits (-180.0 0.0)
 end
  begin
     id 21 
     name lhand
     direction 1 -4.48927e-011 6.3004e-026   
     length 0.645616   
     axis -4.02019e-014 90 90   XYZ
    dof rx rz
    limits (-90.0 90.0)
           (-45.0 45.0)
  end
  begin
     id 22 
     name lfingers
     direction 1 -4.4904e-011 1.26008e-025   
     length 0.520512   
     axis -8.04039e-014 90 90   XYZ
    dof rx
    limits (0.0 90.0)
  end
  begin
     id 23
     name lthumb
     direction 0.707107 -6.34947e-011 0.707107   
     length 0.747354   
     axis -90 45 2.85299e-015   XYZ
    dof rx rz
    limits (-45.0 45.0)
           (-45.0 45.0)
  end
  begin
     id 24 
     name rclavicle
     direction -0.909391 0.383475 -0.161107   
     length 3.25176  
     axis 0 0 0   XYZ 
    dof ry rz
    limits (-10.0 20.0)
           (-20.0 0.0)
  end
  begin
     id 25 
     name rhumerus
     direction -1 -4.48965e-011 -1.81384e-027  
     length 5.6595   
     axis 180 30 90   XYZ
    dof rx ry rz
    limits (-90.0 60.0)
           (-90.0 90.0)
           (-90.0 90.0)
  end
  begin
     id 26 
     name rradius
     direction -1 -4.48996e-011 -8.09397e-027   
     length 3.37604   
     axis 180 30 90   XYZ
    dof rx
    limits (-10.0 170.0)
  end
  begin
     id 27 
     name rwrist
     direction -1 -4.48927e-011 -1.56669e-026   
     length 1.68802   
     axis 1.21142e-014 -90 -90   XYZ
    dof ry
    limits (-180.0 0.0)
  end
  begin
     id 28
     name rhand
     direction -1 -4.48912e-011 -3.13339e-026   
     length 0.824702   
     axis 1.99937e-014 -90 -90   XYZ
    dof rx rz
    limits (-90.0 90.0)
           (-45.0 45.0)
  end
  begin
     id 29
     name rfingers
     direction -1 -4.49011e-011 -6.26677e-026   
     length 0.664896   
     axis 3.99874e-014 -90 -90   XYZ
    dof rx
    limits (0.0 90.0)
  end
  begin
     id 30
     name rthumb
     direction -0.707107 -6.34931e-011 0.707107   
     length 0.954662   
     axis -90 -45 -2.85299e-015   XYZ
    dof rx rz
    limits (-45.0 45.0)
           (-45.0 45.0)
  end
:hierarchy
  begin
    root lhipjoint rhipjoint lowerback
    lhipjoint lfemur
    lfemur ltibia
    ltibia lfoot
    lfoot ltoes
    rhipjoint rfemur
    rfemur rtibia
    rtibia rfoot
    rfoot rtoes
    lowerback upperback
    upperback thorax
    thorax lowerneck lclavicle rclavicle
    lowerneck upperneck
    upperneck head
    lclavicle lhumerus
    lhumerus lradius
    lradius lwrist
    lwrist lhand lthumb
    lhand lfingers
    rclavicle rhumerus
    rhumerus rradius
    rradius rwrist
    rwrist rhand rthumb
    rhand rfingers
  end

#!OML:ASF F:\VICON\USERDATA\INSTALL\rory3\rory3.ASF
:FULLY-SPECIFIED
:DEGREES
269
root 9.99695 17.8739 -35.5771 22.3473 -47.9898 -11.2574
lowerback 8.84309 -0.320491 -0.693921
upperback 1.33279 -0.384549 3.89334
thorax -3.54537 -0.181254 4.494
lowerneck -15.5034 2.23874 -9.38403
upperneck 22.7318 3.76153 6.80708
head 9.38655 1.66105 4.40047
rclavicle -5.44173e-014 -1.47101e-014
rhumerus -33.0252 -13.8894 -70.055
rradius 42.3875
rwrist -19.3844
rhand -12.2168 17.1226
rfingers 7.12502
rthumb 13.8481 -12.3964
lclavicle -5.44173e-014 -1.47101e-014
lhumerus -22.8381 19.4404 78.4247
lradius 32.1369
lwrist -2.10962
lhand -3.06193 32.2768
lfingers 7.12502
lthumb 22.6545 60.9672
rfemur -14.88 5.15545 22.1809
rtibia 41.409
rfoot -16.2803 -0.96581
rtoes -12.7081
lfemur -40.2045 1.78981 -11.6115
ltibia 44.0858
lfoot -15.5365 4.8938
ltoes -46.3487
270
root 9.95831 17.856 -35.4478 22.5391 -48.0298 -11.3881
lowerback 8.8796 -0.383775 -0.598965
upperback 1.35906 -0.460182 3.91414
thorax -3.5327 -0.220889 4.47094
lowerneck -14.0269 2.26729 -10.6524
upperneck 21.6234 3.76269 7.74582
head 8.6745 1.67713 4.85063
rclavicle 1.09978e-013 -2.68359e-014
rhumerus -32.7711 -13.3574 -70.275
rradius 42.6777
rwrist -19.5372
rhand -12.3945 17.0241
rfingers 7.12502
rthumb 13.6768 -12.5066
lclavicle 1.09978e-013 -2.68359e-014
lhumerus -22.9835 19.8814 78.2919
lradius 32.1859
lwrist -2.56785
lhand -2.90585 32.1176
lfingers 7.12502
lthumb 22.8043 60.7896
rfemur -14.5717 5.2971 22.0528
rtibia 41.3765
rfoot -16.0368 -0.87814
rtoes -12.1188
lfemur -40.287 1.7049 -11.618
ltibia 43.8639
lfoot -15.4976 4.11171
ltoes -45.3335
271
root 9.91991 17.8821 -35.3306 22.8014 -47.7938 -11.2637
lowerback 8.83099 -0.54851 -0.702037
upperback 1.22191 -0.681903 3.98472
thorax -3.62812 -0.325867 4.63143
lowerneck -14.3958 2.37734 -10.1355
upperneck 21.8926 3.92153 7.32365
head 8.84216 1.74399 4.6556
rclavicle -1.0466e-013 -2.51463e-014
rhumerus -32.5391 -12.9754 -70.3814
rradius 42.8509
rwrist -19.5853
rhand -12.3287 17.053
rfingers 7.12502
rthumb 13.7403 -12.4733
lclavicle -1.0466e-013 -2.51463e-014
lhumerus -23.0811 20.219 78.1849
lradius 32.0905
lwrist -2.71078
lhand -2.9464 31.8334
lfingers 7.12502
lthumb 22.7654 60.5102
rfemur -14.5512 5.40285 21.9215
rtibia 41.3519
rfoot -15.8212 -1.57522
rtoes -14.3528
lfemur -40.5117 0.0390134 -11.3425
ltibia 43.7415
lfoot -14.6119 5.02302
ltoes -46.0592
272
root 9.87246 17.8384 -35.1712 22.654 -48.3346 -11.2714
lowerback 8.763 -0.476605 -0.767769
upperback 1.34603 -0.599799 3.93932
thorax -3.4678 -0.28878 4.60774
lowerneck -14.2352 2.50997 -9.93729
upperneck 21.8797 4.09329 7.08628
head 8.80282 1.81292 4.55181
rclavicle -4.58199e-014 -6.16232e-015
rhumerus -32.3048 -12.8675 -70.4003
rradius 42.93
rwrist -19.4718
rhand -12.2006 17.2564
rfingers 7.12502
rthumb 13.8636 -12.2615
lclavicle -4.58199e-014 -6.16232e-015
lhumerus -23.0486 20.2044 78.1614
lradius 31.8474
lwrist -2.5859
lhand -3.03452 31.7648
lfingers 7.12502
lthumb 22.6808 60.452
rfemur -14.0283 5.76176 21.3746
rtibia 41.5221
rfoot -15.4287 -1.00818
rtoes -11.6321
lfemur -40.312 1.27873 -12.2711
ltibia 44.1455
lfoot -14.5782 4.18929
ltoes -46.1498
273
root 9.82798 17.8241 -35.0209 22.5016 -48.6053 -11.1531
lowerback 8.77596 -0.421169 -0.830628
upperback 1.38547 -0.53524 3.86404
thorax -3.4396 -0.256956 4.55636
lowerneck -14.2139 2.53187 -9.87231
upperneck 22.1486 4.07635 7.1693
head 8.89077 1.80963 4.57804
rclavicle 6.43565e-014 -2.49475e-014
rhumerus -32.2106 -12.9404 -70.3677
rradius 43.0183
rwrist -19.3715
rhand -12.2416 17.2863
rfingers 7.12502
rthumb 13.8241 -12.2344
lclavicle 6.43565e-014 -2.49475e-014
lhumerus -22.8064 19.8821 78.1666
lradius 31.5137
lwrist -2.28851
lhand -2.99562 32.386
lfingers 7.12502
lthumb 22.7182 61.0686
rfemur -13.6069 6.02243 20.887
rtibia 41.6627
rfoot -15.2531 -0.922464
rtoes -11.2365
lfemur -40.0169 1.14328 -12.7697
ltibia 44.7062
lfoot -14.2705 4.36403
ltoes -45.5445
274
root 9.78326 17.8092 -34.8737 22.4779 -48.7925 -11.2517
lowerback 8.86155 -0.404936 -0.762966
upperback 1.4153 -0.508293 3.84947
thorax -3.45928 -0.244827 4.50057
lowerneck -14.0213 2.57505 -10.0596
upperneck 22.278 4.08975 7.44325
head 8.88424 1.82294 4.70467
rclavicle 1.99282e-014 -1.59028e-014
rhumerus -32.1688 -12.7388 -70.3302
rradius 43.2228
rwrist -19.6041
rhand -11.9939 17.2233
rfingers 7.12502
rthumb 14.0629 -12.2809
lclavicle 1.99282e-014 -1.59028e-014
lhumerus -22.8241 20.1696 78.0746
lradius 31.3784
lwrist -2.42361
lhand -3.24574 32.5387
lfingers 7.12502
lthumb 22.4781 61.2505
rfemur -13.2396 6.33773 20.632
rtibia 41.9093
rfoot -14.8787 -1.05949
rtoes -12.1127
lfemur -39.8102 1.3661 -13.2414
ltibia 45.61
lfoot -14.2761 4.28799
ltoes -45.0913
275
root 9.73672 17.7856 -34.7216 22.5401 -48.9595 -11.4899
lowerback 8.80627 -0.382373 -0.542636
upperback 1.5847 -0.466235 3.84712
thorax -3.25768 -0.232388 4.36399
lowerneck -13.9063 2.5684 -10.233
upperneck 22.1313 4.07426 7.61102
head 8.80473 1.8228 4.78054
rclavicle 7.82715e-014 3.99557e-014
rhumerus -31.9221 -12.6992 -70.3492
rradius 43.425
rwrist -19.5683
rhand -11.6155 17.2394
rfingers 7.12502
rthumb 14.4275 -12.2391
lclavicle 7.82715e-014 3.99557e-014
lhumerus -22.7413 20.6252 78.0492
lradius 31.342
lwrist -2.71521
lhand -3.40504 32.1163
lfingers 7.12502
lthumb 22.3252 60.8465
rfemur -12.8645 6.4863 20.4551
rtibia 42.1606
rfoot -14.258 -1.02305
rtoes -12.9548
lfemur -39.6145 2.09929 -13.9271
ltibia 46.5514
lfoot -14.5403 4.41486
ltoes -45.9066
276
root 9.69025 17.7749 -34.5629 22.658 -49.0505 -11.7305
lowerback 8.79768 -0.386928 -0.457373
upperback 1.68149 -0.466826 3.95526
thorax -3.15209 -0.237035 4.42779
lowerneck -14.4658 2.6771 -9.26261
upperneck 22.5215 4.23868 6.76208
head 9.07723 1.88146 4.37413
rclavicle 6.68413e-014 1.98785e-015
rhumerus -31.6716 -12.6222 -70.307
rradius 43.5389
rwrist -19.2836
rhand -11.6163 17.2418
rfingers 7.12502
rthumb 14.4267 -12.2368
lclavicle 6.68413e-014 1.98785e-015
lhumerus -22.6216 20.7647 78.1589
lradius 31.231
lwrist -2.57692
lhand -3.38677 32.08
lfingers 7.12502
lthumb 22.3427 60.8081
rfemur -12.5808 6.52635 20.2541
rtibia 42.5
rfoot -13.5173 -0.763107
rtoes -12.919
lfemur -39.2831 1.80716 -14.3648
ltibia 47.3841
lfoot -14.503 6.09385
ltoes -47.1568
277
root 9.64581 17.7527 -34.4042 22.6651 -49.1295 -11.7966
lowerback 8.8236 -0.357476 -0.36478
upperback 1.70313 -0.420048 3.95416
thorax -3.14847 -0.215215 4.36877
lowerneck -12.9631 2.408 -11.0236
upperneck 21.2546 3.81578 8.21655
head 8.32434 1.71615 5.03195
rclavicle 3.0265e-014 -2.55438e-014
rhumerus -31.6623 -12.6426 -70.2354
rradius 43.7454
rwrist -19.4171
rhand -11.7584 17.2335
rfingers 7.12502
rthumb 14.2898 -12.2548
lclavicle 3.0265e-014 -2.55438e-014
lhumerus -22.4514 20.6289 78.216
lradius 30.9322
lwrist -2.83966
lhand -3.49656 32.0621
lfingers 7.12502
lthumb 22.2373 60.8028
rfemur -12.4119 6.63216 19.9194
rtibia 42.9538
rfoot -12.742 -0.521575
rtoes -12.4922
lfemur -39.0858 2.10757 -15.0692
ltibia 48.0284
lfoot -14.4185 7.39559
ltoes -48.1122
278
root 9.60254 17.7242 -34.2477 22.4398 -49.298 -11.5962
lowerback 8.89868 -0.335125 -0.411836
upperback 1.68386 -0.394869 3.85094
thorax -3.21261 -0.200879 4.28565
lowerneck -17.4925 2.72859 -6.98133
upperneck 25.9296 4.25423 5.34684
head 10.98 1.83894 3.72215
rclavicle 2.89729e-014 -2.19657e-014
rhumerus -31.7851 -12.6236 -70.1488
rradius 43.9687
rwrist -19.5377
rhand -11.791 17.2285
rfingers 7.12502
rthumb 14.2584 -12.262
lclavicle 2.89729e-014 -2.19657e-014
lhumerus -22.411 20.8132 78.0602
lradius 30.6049
lwrist -4.00409
lhand -2.94469 32.2419
lfingers 7.12502
lthumb 22.767 60.9185
rfemur -12.3044 6.69152 19.3807
rtibia 43.5142
rfoot -11.9188 -0.356911
rtoes -12.4737
lfemur -38.7992 2.61847 -15.9209
ltibia 48.4315
lfoot -14.5895 8.16649
ltoes -48.8003
279
root 9.55378 17.7104 -34.0817 22.1152 -49.681 -11.3231
lowerback 8.95043 -0.299899 -0.62293
upperback 1.69204 -0.369715 3.73924
thorax -3.23416 -0.185817 4.28619
lowerneck -13.4705 2.65573 -9.97974
upperneck 22.6573 4.022 7.77383
head 8.90743 1.8116 4.79745
rclavicle -5.03919e-014 1.19271e-014
rhumerus -31.8388 -12.6342 -70.0481
rradius 44.0287
rwrist -19.1068
rhand -11.6111 17.327
rfingers 7.12502
rthumb 14.4318 -12.1512
lclavicle -5.03919e-014 1.19271e-014
lhumerus -22.4628 20.7623 78.1043
lradius 30.2741
lwrist -2.80878
lhand -4.79043 31.6659
lfingers 7.12502
lthumb 20.9948 60.5496
rfemur -12.2358 6.78116 18.6664
rtibia 44.208
rfoot -10.9642 -0.0639523
rtoes -11.3326
lfemur -38.1452 2.22931 -16.6051
ltibia 48.6596
lfoot -14.4914 9.64688
ltoes -49.1049
280
root 9.50257 17.6923 -33.9166 21.8883 -49.9937 -11.1041
lowerback 8.95353 -0.355106 -0.977769
upperback 1.69901 -0.474776 3.79866
thorax -3.21679 -0.234874 4.56311
lowerneck -13.3957 2.7055 -10.0728
upperneck 22.5976 4.11796 7.72192
head 8.86308 1.84354 4.79912
rclavicle 1.40143e-014 3.67752e-015
rhumerus -31.6914 -12.4877 -69.9014
rradius 44.0045
rwrist -18.6695
rhand -11.4015 17.4733
rfingers 7.12502
rthumb 14.6337 -11.9903
lclavicle 1.40143e-014 3.67752e-015
lhumerus -22.6969 21.8345 77.9004
lradius 30.2964
lwrist -3.56401
lhand -3.69521 32.3512
lfingers 7.12502
lthumb 22.0466 61.1145
rfemur -12.1812 6.8109 17.9955
rtibia 44.6658
rfoot -9.57219 0.45127
rtoes -9.67663
lfemur -37.4746 2.07334 -17.3617
ltibia 48.8238
lfoot -14.3921 11.0407
ltoes -49.203
281
root 9.45941 17.6698 -33.7705 21.7284 -49.8928 -10.7757
lowerback 9.005 -0.816794 -1.64466
upperback 1.58948 -1.13635 4.23788
thorax -3.27957 -0.554866 5.48828
lowerneck -13.2419 3.09367 -10.7955
upperneck 22.59 4.82996 7.61887
head 8.7459 2.10291 4.94406
rclavicle 3.32219e-014 -1.21756e-014
rhumerus -31.1353 -11.1589 -69.8087
rradius 43.9611
rwrist -18.7486
rhand -11.5699 17.3768
rfingers 7.12502
rthumb 14.4715 -12.0986
lclavicle 3.32219e-014 -1.21756e-014
lhumerus -23.3485 23.7884 77.6425
lradius 30.3286
lwrist -4.52173
lhand -2.66803 32.727
lfingers 7.12502
lthumb 23.0325 61.3707
rfemur -12.3552 6.5454 17.4741
rtibia 45.1698
rfoot -7.89936 0.98793
rtoes -8.07717
lfemur -37.0088 1.94321 -17.9921
ltibia 48.9274
lfoot -14.6652 11.814
ltoes -49.2968
282
root 9.40773 17.7549 -33.5897 21.5454 -49.8846 -10.4104
lowerback 9.0711 -1.44136 -2.56858
upperback 1.46115 -2.03778 4.87529
thorax -3.29667 -0.993051 6.80795
lowerneck -12.8379 3.66919 -12.3364
upperneck 22.4409 5.87337 7.84789
head 8.45647 2.48968 5.34418
rclavicle 1.46883e-014 1.72818e-014
rhumerus -30.3698 -8.78775 -69.781
rradius 44.0096
rwrist -19.0196
rhand -12.0102 17.079
rfingers 7.12502
rthumb 14.0472 -12.4263
lclavicle 1.46883e-014 1.72818e-014
lhumerus -24.1888 26.2677 77.3779
lradius 30.1474
lwrist -4.8612
lhand -2.81987 32.2382
lfingers 7.12502
lthumb 22.8868 60.9
rfemur -12.3393 6.39936 16.8942
rtibia 45.3501
rfoot -5.85455 1.24865
rtoes -5.72918
lfemur -37.0538 -0.0468456 -17.19
ltibia 49.0593
lfoot -18.4327 3.88823
ltoes -17.3678
283
root 9.35387 17.7569 -33.4209 21.4789 -50.3147 -10.2583
lowerback 9.0044 -1.58815 -3.19136
upperback 1.41339 -2.28614 5.14207
thorax -3.23949 -1.11194 7.48164
lowerneck -11.7328 3.90244 -13.6308
upperneck 21.3952 6.20465 8.43508
head 7.79911 2.63606 5.68603
rclavicle 4.68386e-014 -2.76311e-014
rhumerus -30.1978 -7.75164 -69.6501
rradius 44.1976
rwrist -18.9257
rhand -12.08 17.0502
rfingers 7.12502
rthumb 13.9799 -12.4598
lclavicle 4.68386e-014 -2.76311e-014
lhumerus -24.4782 27.4213 77.213
lradius 29.8634
lwrist -4.72189
lhand -2.89 32.1686
lfingers 7.12502
lthumb 22.8195 60.8387
rfemur -12.5628 6.58359 16.2323
rtibia 45.7422
rfoot -3.44241 1.60829
rtoes -2.74095
lfemur -36.3697 -1.20195 -17.5935
ltibia 49.1089
lfoot -18.7989 5.43166
ltoes -17.2266
